# xmcd CD database file
#
# Track frame offsets:
#	150
#	4650
#	28527
#	43554
#	62997
#	83374
#	103492
#	131302
#	142799
#	164212
#	186472
#	200114
#	211862
#	233257
#
# Disc length: 3336 seconds
#
# Revision: 0
# Processed by: cddbd v1.4PL0 Copyright (c) Steve Scherf et al.
# Submitted via: CDex 1.50beta9
#
DISCID=bb0d060e
DTITLE=Diana Krall - When I Look In Your Eyes
DYEAR=2002
DGENRE=Jazz
TTITLE0=Let's Face The Music And Dance
TTITLE1=Devil May Care
TTITLE2=Let's Fall In Love
TTITLE3=When I Look In Your Eyes
TTITLE4=Popsicle Toes
TTITLE5=I've Got You Under My Skin
TTITLE6=I Can't Give You Anthing But Love
TTITLE7=I'll Swin Along With You
TTITLE8=East Of The Sun (And West Of The Moon)
TTITLE9=Pick Yourself Up
TTITLE10=The Best Thing For You
TTITLE11=Do It Again
TTITLE12=Why Should I Care
TTITLE13=Data Track
EXTD=YEAR: 2002
EXTT0=
EXTT1=
EXTT2=
EXTT3=
EXTT4=
EXTT5=
EXTT6=
EXTT7=
EXTT8=
EXTT9=
EXTT10=
EXTT11=
EXTT12=
EXTT13=
PLAYORDER=
